<svg id="visual" viewBox="0 0 900 600" width="900" height="600" xmlns="http://www.w3.org/2000/svg" xmlns:xlink="http://www.w3.org/1999/xlink" version="1.1"><rect x="0" y="0" width="900" height="600" fill="#fff"></rect><g transform="translate(432.0700350927349 295.8956507328438)"><path d="M126.9 -220.7C158.6 -201.6 174.1 -155.6 200.1 -114.3C226.1 -73 262.6 -36.5 274.2 6.7C285.9 50 272.9 100 247.2 141.9C221.5 183.7 183.3 217.4 140 231.8C96.7 246.1 48.3 241 8.5 226.3C-31.3 211.5 -62.5 186.9 -97.7 167.9C-132.9 148.9 -172.1 135.5 -200.3 108.4C-228.5 81.3 -245.8 40.7 -242.2 2.1C-238.6 -36.5 -214.1 -73 -186.4 -100.9C-158.6 -128.7 -127.6 -147.9 -95.9 -167C-64.3 -186.1 -32.2 -205 7.7 -218.5C47.7 -231.9 95.3 -239.8 126.9 -220.7" fill="#100d22"></path></g></svg>